<?xml version="1.0" encoding="UTF-8"?>
<svg width="32" height="32" viewBox="0 0 512 512" fill="none" xmlns="http://www.w3.org/2000/svg">
  <!-- 背景 -->
  <rect width="512" height="512" fill="#C9211E"/>
  
  <!-- 圆形元素 -->
  <path d="M175 110C226.856 110 269 152.144 269 204C269 204.685 268.986 205.368 268.958 206.049C268.369 239.137 256.055 269.26 235.858 293C222.12 308.773 203.807 320.204 183 325.204C129.488 325.204 86 283.06 86 230.204C86 177.348 129.488 135.204 183 135.204C183.971 135.204 184.939 135.221 185.903 135.254C182.046 126.969 179.828 117.794 179.5 108.118C178.001 108.04 176.504 108 175 108V110Z" fill="#F0E6D2"/>
  
  <!-- 黑色曲线 -->
  <path d="M386 204C386 255.856 343.856 298 292 298C291.315 298 290.632 297.986 289.951 297.958C256.863 297.369 226.74 285.055 203 264.858C187.227 251.12 175.796 232.807 170.796 212C170.796 158.488 212.94 115 265.796 115C318.652 115 360.796 158.488 360.796 212C360.796 212.971 360.779 213.939 360.746 214.903C369.031 211.046 378.206 208.828 387.882 208.5C387.96 207.001 388 205.504 388 204H386Z" fill="#191919"/>
  
  <!-- 汉字元素 -->
  <path d="M392 262H353L353 222H333V262H294V282H333V322H353V282H392V262Z" fill="#F0E6D2"/>
  <path d="M254 352H154V372H204V432H224V372H254V352Z" fill="#F0E6D2"/>
  <path d="M364 352H304L364 412H304V432H394V412L334 352H394V332H364V352Z" fill="#F0E6D2"/>
</svg> 
